<?xml version="1.0" standalone="no"?>
<!DOCTYPE svg PUBLIC "-//W3C//DTD SVG 20010904//EN"
 "http://www.w3.org/TR/2001/REC-SVG-20010904/DTD/svg10.dtd">
<svg version="1.0" xmlns="http://www.w3.org/2000/svg"
 width="2048.000000pt" height="2048.000000pt" viewBox="0 0 2048.000000 2048.000000"
 preserveAspectRatio="xMidYMid meet">

<g transform="translate(0.000000,2048.000000) scale(0.100000,-0.100000)"
fill="#000000" stroke="none">
<path d="M6066 14802 c-4 -7 -9 -3046 -6 -3849 l0 -93 270 0 270 0 0 1705 0
1705 293 0 c3252 3 3212 3 3382 -20 378 -50 685 -133 1048 -284 325 -134 682
-348 962 -576 151 -122 405 -349 405 -361 0 -2 -179 -4 -398 -4 -408 0 -425
-1 -697 -34 -330 -40 -535 -89 -753 -181 -255 -108 -497 -286 -700 -514 -98
-110 -283 -363 -435 -594 -213 -326 -361 -535 -467 -661 -95 -113 -238 -257
-289 -289 -14 -9 -48 -34 -76 -55 -95 -75 -274 -154 -430 -190 -90 -21 -94
-21 -2195 -24 l-2105 -3 -23 67 c-91 263 -336 493 -595 560 -300 77 -586 23
-819 -155 -61 -46 -185 -191 -226 -263 -111 -196 -146 -453 -92 -669 99 -390
429 -655 845 -676 90 -5 129 -2 215 16 326 67 574 280 675 580 l22 65 2124 5
2124 6 95 22 c341 80 538 165 760 329 89 66 333 308 411 408 79 102 275 384
434 627 44 68 112 165 150 218 39 52 93 127 120 165 72 103 195 243 281 321
265 241 614 379 1084 430 262 28 1311 19 1362 -12 27 -17 246 -385 305 -514
244 -530 366 -1102 362 -1698 -2 -336 -33 -593 -105 -890 -87 -356 -215 -674
-399 -987 -242 -413 -540 -765 -904 -1070 -295 -246 -762 -511 -1166 -662
-296 -110 -751 -209 -1090 -237 -77 -6 -708 -8 -2387 -7 l-1108 1 0 1580 0
1580 -272 -2 -273 -3 0 -1847 c0 -1015 4 -1850 8 -1855 11 -10 3620 -13 3897
-3 113 5 232 11 265 14 33 3 87 8 120 12 119 11 423 66 555 99 338 86 734 238
1035 398 257 136 353 195 520 320 236 177 372 292 587 497 117 112 362 402
495 585 179 247 403 677 519 995 89 243 118 344 170 590 99 469 122 862 78
1310 -31 325 -45 410 -105 660 -73 308 -151 532 -287 830 -42 91 -69 112 -201
160 -116 41 -398 120 -506 140 -92 17 -93 18 -138 78 -78 106 -200 257 -276
341 l-76 84 129 -7 c156 -8 317 -28 495 -62 73 -14 137 -24 141 -22 10 3 -122
176 -236 310 -145 170 -523 519 -719 663 -312 230 -758 478 -1070 595 -400
150 -724 229 -1135 277 l-225 27 -2012 3 c-1197 3 -2013 0 -2017 -5z m-2661
-4037 c162 -43 303 -171 366 -334 27 -69 37 -230 19 -314 -14 -71 -67 -179
-115 -234 -46 -54 -157 -127 -237 -154 -92 -33 -236 -31 -335 3 -79 28 -181
96 -233 155 -95 107 -134 213 -135 358 0 117 26 203 90 299 40 61 142 149 213
185 97 49 256 64 367 36z"/>
</g>
</svg>
